<svg width="40" height="40" viewBox="0 0 40 40" fill="none" xmlns="http://www.w3.org/2000/svg">
<g clip-path="url(#clip0)">
<path d="M39.015 17.6249L22.3764 0.986186C21.0641 -0.326125 18.9357 -0.326125 17.6234 0.986186C16.3111 2.2985 16.3111 4.42686 17.6234 5.73917L31.884 19.9997L17.6234 34.2602C16.3111 35.5725 16.3111 37.7008 17.6234 39.0131C18.9357 40.3254 21.0641 40.3254 22.3764 39.0131L39.015 22.3745C40.3273 21.0655 40.3273 18.9372 39.015 17.6249ZM19.009 16.6173L5.79936 2.69489C4.47201 1.29768 2.32208 1.29768 0.994743 2.69489C-0.332598 4.0921 -0.332598 6.35869 0.994743 7.7576L11.8029 19.1487L0.994743 30.5397C-0.332598 31.937 -0.332598 34.2052 0.994743 35.6025C2.32208 36.9997 4.47201 36.9997 5.79936 35.6025L19.009 21.68C20.3363 20.2828 20.3363 18.0162 19.009 16.6173Z" fill="#0165B3"/>
</g>
<defs>
<clipPath id="clip0">
<rect width="40" height="40" fill="white"/>
</clipPath>
</defs>
</svg>
