<svg width="40" height="40" viewBox="0 0 40 40" fill="none" xmlns="http://www.w3.org/2000/svg">
<g clip-path="url(#clip0)">
<path d="M8.11628 19.9983L22.3773 5.73732C23.6896 4.42497 23.6896 2.29655 22.3773 0.984263C21.0649 -0.328088 18.9365 -0.328088 17.6241 0.984263L0.984905 17.6234C-0.327447 18.9358 -0.327447 21.0642 0.984905 22.3766L17.6241 39.0158C18.9365 40.328 21.0649 40.328 22.3773 39.0158C23.6896 37.7034 23.6896 35.575 22.3773 34.2626L8.11628 19.9983ZM28.1962 19.98L39.0048 9.1315C40.3321 7.80085 40.3321 5.64079 39.0048 4.31007C37.6774 2.97942 35.5274 2.97942 34.2 4.31007L20.9899 17.5701C19.6626 18.9008 19.8758 19.8751 21.1881 21.1874L34.2 35.6516C35.5274 36.9822 37.6774 36.9822 39.0048 35.6516C40.3321 34.3209 40.3321 32.1609 39.0048 30.8301L28.1962 19.98Z" fill="#0165B3"/>
</g>
<defs>
<clipPath id="clip0">
<rect width="40" height="40" fill="white"/>
</clipPath>
</defs>
</svg>
